/* XPM */
static char *out/feta20-rests-6[] = {
/* width height ncolors chars_per_pixel */
"14 37 2 1",
/* colors */
"` c #000",
"a c #FF",
/* pixels */
"aaaaaa```aaaaa",
"aaaaa`````aaa`",
"aaaaa`````aaa`",
"aaaaa`````aa``",
"aaaaaa``````aa",
"aaaaaaaaaaaa`a",
"aaaaaaaaaaaa`a",
"aaaaaaaaaaaa`a",
"aaaa```aaaaa`a",
"aaa`````aaa`aa",
"aaa`````aaa`aa",
"aaa`````````aa",
"aaaa``````a`aa",
"aaaaaaaaaaa`aa",
"aaaaaaaaaa``aa",
"aaa```aaaa`aaa",
"aa`````aaa`aaa",
"aa`````aaa`aaa",
"aa`````aa``aaa",
"aaa````````aaa",
"aaaaaaaaa`aaaa",
"aaaaaaaaa`aaaa",
"aaaaaaaaa`aaaa",
"a```aaaaa`aaaa",
"`````aaa``aaaa",
"`````aaa`aaaaa",
"`````````aaaaa",
"a``````a`aaaaa",
"aaaaaaaa`aaaaa",
"aaaaaaa``aaaaa",
"aaaaaaa``aaaaa",
"aaaaaaa`aaaaaa",
"aaaaaaa`aaaaaa",
"aaaaaaa`aaaaaa",
"aaaaaa``aaaaaa",
"aaaaaa``aaaaaa",
"aaaaaa`aaaaaaa"
};
