/* XPM */
static char *out/feta20-noteheads-2[] = {
/* width height ncolors chars_per_pixel */
"10 8 2 1",
/* colors */
"` c #000",
"a c #FF",
/* pixels */
"aaaa`````a",
"aa````````",
"a`````````",
"``````````",
"``````````",
"`````````a",
"````````aa",
"a`````aaaa"
};
