/* XPM */
static char *out/feta20-rests-3[] = {
/* width height ncolors chars_per_pixel */
"10 14 2 1",
/* colors */
"` c #000",
"a c #FF",
/* pixels */
"a```aaaaa`",
"`````aaaa`",
"`````aaa``",
"`````````a",
"a````````a",
"aaaaaaa``a",
"aaaaaaa`aa",
"aaaaaaa`aa",
"aaaaaaa`aa",
"aaaaaa`aaa",
"aaaaaa`aaa",
"aaaaaa`aaa",
"aaaaa``aaa",
"aaaaa`aaaa"
};
