/* XPM */
static char *out/feta20-accidentals-2[] = {
/* width height ncolors chars_per_pixel */
"8 8 2 1",
/* colors */
"` c #000",
"a c #FF",
/* pixels */
"```aa```",
"````````",
"````````",
"a``````a",
"a``````a",
"````````",
"````````",
"```aa```"
};
