/* XPM */
static char *out/feta20-clefs-G[] = {
/* width height ncolors chars_per_pixel */
"20 59 2 1",
/* colors */
"` c #000",
"a c #FF",
/* pixels */
"aaaaaaaaaaa``aaaaaaa",
"aaaaaaaaaa```aaaaaaa",
"aaaaaaaaa`````aaaaaa",
"aaaaaaaa```````aaaaa",
"aaaaaaaa```````aaaaa",
"aaaaaaa`````a```aaaa",
"aaaaaaa````aaa``aaaa",
"aaaaaa`````aaa``aaaa",
"aaaaaa````aaaa```aaa",
"aaaaaa````aaaa```aaa",
"aaaaaa```aaaaa```aaa",
"aaaaaa```aaaaa```aaa",
"aaaaaa```aaaaa```aaa",
"aaaaaa```aaaa````aaa",
"aaaaaa```aaaa````aaa",
"aaaaaaa``aaa````aaaa",
"aaaaaaa``aaa````aaaa",
"aaaaaaa``aa````aaaaa",
"aaaaaaa````````aaaaa",
"aaaaaaa```````aaaaaa",
"aaaaaaaa`````aaaaaaa",
"aaaaaaaa````aaaaaaaa",
"aaaaaaa````aaaaaaaaa",
"aaaaaa`````aaaaaaaaa",
"aaaaa``````aaaaaaaaa",
"aaaa```````aaaaaaaaa",
"aaa`````a``aaaaaaaaa",
"aaa````aa``aaaaaaaaa",
"aa````aaa``aaaaaaaaa",
"aa````aaa``aaaaaaaaa",
"a````aaaa``````aaaaa",
"a````aa``````````aaa",
"````aa````````````aa",
"````aa`````````````a",
"```aa````a``aaa````a",
"```aa```aa``aaaaa```",
"```aa```aaa``aaaaa``",
"```aa```aaa``aaaaa``",
"a``aa```aaa``aaaaa``",
"a```aa```aa``aaaaa``",
"a```aaa```a``aaaaa``",
"aa```aaa```a`aaaaa`a",
"aaa```aaaaaa``aaa``a",
"aaaa`````aaa``a```aa",
"aaaaaa```````````aaa",
"aaaaaaaa```````aaaaa",
"aaaaaaaaaaaa``aaaaaa",
"aaaaaaaaaaaaa``aaaaa",
"aaaaaaaaaaaaa``aaaaa",
"aaaaaaaaaaaaa``aaaaa",
"aaaa````aaaaa``aaaaa",
"aaa``````aaaaa`aaaaa",
"aaa``````aaaaa`aaaaa",
"aaa``````aaaaa`aaaaa",
"aaa``````aaaaa`aaaaa",
"aaa``````aaaa`aaaaaa",
"aaaa````aaaaa`aaaaaa",
"aaaaa`````aa`aaaaaaa",
"aaaaaaa`````aaaaaaaa"
};
