/* XPM */
static char * feta20_accidentals__1_xpm[] = {
"7 20 3 1",
" 	c None",
".	c #000000",
"+	c #FF",
"..+++++",
"..+++++",
"..+++++",
"..+++++",
"..+++++",
"..+++++",
"..+++++",
"..+++++",
"..+++++",
"..+++++",
"..+...+",
".......",
"..++...",
"..+++..",
"..+++..",
"..++..+",
"..+..++",
"....+++",
"...++++",
"..+++++"};
