/* XPM */
static char *out/feta20-noteheads-0[] = {
/* width height ncolors chars_per_pixel */
"15 8 2 1",
/* colors */
"` c #000",
"a c #FF",
/* pixels */
"aaa`````````aaa",
"a````aaaa`````a",
"````aaaaaa`````",
"````aaaaaaa````",
"````aaaaaaa````",
"`````aaaaaa````",
"a`````aaaa````a",
"aaa`````````aaa"
};
