/* XPM */
static char *out/feta20-flags-u4[] = {
/* width height ncolors chars_per_pixel */
"8 27 2 1",
/* colors */
"` c #000",
"a c #FF",
/* pixels */
"`aaaaaaa",
"`aaaaaaa",
"`aaaaaaa",
"`aaaaaaa",
"``aaaaaa",
"``aaaaaa",
"```aaaaa",
"````aaaa",
"`aa``aaa",
"`aaa``aa",
"`aaaa``a",
"``aaaa`a",
"```aaa``",
"````aaa`",
"`aa``aa`",
"`aaa``a`",
"aaaaa``a",
"aaaaaa`a",
"aaaaaa`a",
"aaaaaaa`",
"aaaaaaa`",
"aaaaaaa`",
"aaaaaaa`",
"aaaaaaa`",
"aaaaaa`a",
"aaaaaa`a",
"aaaaa`aa"
};
