/* XPM */
static char *out/feta20-rests-7[] = {
/* width height ncolors chars_per_pixel */
"16 45 2 1",
/* colors */
"` c #000",
"a c #FF",
/* pixels */
"aaaaaaaa```aaaaa",
"aaaaaaa`````aaa`",
"aaaaaaa`````aaa`",
"aaaaaaa`````aa``",
"aaaaaaa````````a",
"aaaaaaaa```````a",
"aaaaaaaaaaaaaa`a",
"aaaaaaaaaaaaaa`a",
"aaaaaa```aaaaa`a",
"aaaaa`````aaa`aa",
"aaaaa`````aaa`aa",
"aaaaa`````aaa`aa",
"aaaaaa``````a`aa",
"aaaaaaaaaaaaa`aa",
"aaaaaaaaaaaa`aaa",
"aaaaaaaaaaaa`aaa",
"aaaaa```aaaa`aaa",
"aaaa`````aaa`aaa",
"aaaa`````aa``aaa",
"aaaa````````aaaa",
"aaaaa```````aaaa",
"aaaaaaaaaaa`aaaa",
"aaaaaaaaaaa`aaaa",
"aaa```aaaa``aaaa",
"aa`````aaa`aaaaa",
"aa`````aaa`aaaaa",
"aa`````aaa`aaaaa",
"aaa``````a`aaaaa",
"aaaaaaaaa``aaaaa",
"aaaaaaaaa`aaaaaa",
"aaaaaaaaa`aaaaaa",
"a```aaaaa`aaaaaa",
"`````aaa``aaaaaa",
"`````aaa``aaaaaa",
"`````````aaaaaaa",
"a````````aaaaaaa",
"aaaaaaaa`aaaaaaa",
"aaaaaaa``aaaaaaa",
"aaaaaaa``aaaaaaa",
"aaaaaaa`aaaaaaaa",
"aaaaaaa`aaaaaaaa",
"aaaaaaa`aaaaaaaa",
"aaaaaa``aaaaaaaa",
"aaaaaa``aaaaaaaa",
"aaaaaa`aaaaaaaaa"
};
