/* XPM */
static char *out/feta20-clefs-F[] = {
/* width height ncolors chars_per_pixel */
"21 25 2 1",
/* colors */
"` c #000",
"a c #FF",
/* pixels */
"aaaaaa``````aaaaaaaaa",
"aaaa``aaaa````aaaaaaa",
"aaa``aaaaaa````aaaaaa",
"aa``aaaaaaaa````aa```",
"aa``aaaaaaaa````aa```",
"a`````aaaaaaa````a```",
"a``````aaaaaa````aaaa",
"a``````aaaaaa````aaaa",
"a``````aaaaaa````aaaa",
"a``````aaaaaa````aaaa",
"aa````aaaaaaa````a```",
"aaaaaaaaaaaaa````a```",
"aaaaaaaaaaaa````aa```",
"aaaaaaaaaaaa````aaaaa",
"aaaaaaaaaaa````aaaaaa",
"aaaaaaaaaaa````aaaaaa",
"aaaaaaaaaa````aaaaaaa",
"aaaaaaaaa````aaaaaaaa",
"aaaaaaaa````aaaaaaaaa",
"aaaaaaa````aaaaaaaaaa",
"aaaaaa```aaaaaaaaaaaa",
"aaaa````aaaaaaaaaaaaa",
"aaa```aaaaaaaaaaaaaaa",
"a```aaaaaaaaaaaaaaaaa",
"``aaaaaaaaaaaaaaaaaaa"
};
