/* XPM */
static char * feta20_number_8_xpm[] = {
"8 12 2 1",
" 	c None",
".	c #000000",
" ...... ",
"........",
"..    ..",
"..    ..",
" .    . ",
" ...... ",
" ...... ",
"..    ..",
"..    ..",
"..    ..",
"........",
" ...... "};
