/* XPM */
static char * feta20_accidentals__2_xpm[] = {
"12 20 4 1",
" 	c None",
".	c #000000",
"+	c #FF",
"@	c #FFFFFF",
"..+++..+++++",
"..+++..+++++",
"..+++..+++++",
"..+++..+++++",
"..+++..+++++",
"..+++..+++++",
"..+++..+++++",
"..+++..+++++",
"..+++..+++++",
"..+++..+++++",
"..+........+",
"............",
"..++...++...",
".+++..++++..",
".@++..++++..",
".@+...+++..+",
".@+.+.++..++",
".@.++.+.++++",
"...++..+++++",
"..+++.++++++"};
